<svg width="17" height="13" viewBox="0 0 17 13" fill="none" xmlns="http://www.w3.org/2000/svg">
<path d="M6.10289 12.5427C5.96011 12.5423 5.81896 12.5125 5.6882 12.4551C5.55743 12.3978 5.43986 12.3142 5.34277 12.2095L0.282246 6.82622C0.0930773 6.62462 -0.00826002 6.35614 0.00052731 6.07982C0.00931464 5.80351 0.127507 5.54201 0.329103 5.35284C0.530699 5.16367 0.799186 5.06233 1.0755 5.07112C1.35181 5.07991 1.61332 5.1981 1.80249 5.39969L6.09248 9.97082L14.8495 0.391234C14.9383 0.280572 15.0489 0.189245 15.1743 0.122863C15.2998 0.0564817 15.4375 0.0164467 15.579 0.00521741C15.7204 -0.00601191 15.8627 0.0118016 15.9971 0.0575636C16.1314 0.103326 16.255 0.17607 16.3602 0.271329C16.4654 0.366587 16.5501 0.48235 16.6089 0.611505C16.6677 0.74066 16.6996 0.880482 16.7024 1.02238C16.7052 1.16428 16.679 1.30526 16.6254 1.43667C16.5718 1.56808 16.4919 1.68713 16.3905 1.78652L6.87342 12.1991C6.77725 12.3057 6.66008 12.3912 6.52927 12.4504C6.39847 12.5095 6.25684 12.541 6.1133 12.5427H6.10289Z" fill="#0098EE"/>
</svg>
