<svg width="20" height="22" viewBox="0 0 20 22" fill="none" xmlns="http://www.w3.org/2000/svg">
<path d="M18.9095 12.7366C18.9524 12.8089 18.9802 12.8887 18.9914 12.9714C19.0026 13.0541 18.997 13.1381 18.9748 13.2187C18.9526 13.2993 18.9142 13.3749 18.862 13.4411C18.8098 13.5072 18.7446 13.5628 18.6703 13.6045C18.596 13.6462 18.5139 13.6733 18.4289 13.6842C18.3438 13.6951 18.2573 13.6896 18.1744 13.668C18.0915 13.6464 18.0138 13.6091 17.9457 13.5584C17.8777 13.5076 17.8205 13.4442 17.7776 13.372L16.276 10.8434C15.3913 11.4195 14.4184 11.8558 13.3934 12.1362L13.8682 14.7542C13.8983 14.9202 13.8593 15.0909 13.7599 15.229C13.6605 15.367 13.5088 15.461 13.3381 15.4903C13.3004 15.4967 13.2621 15.5 13.2238 15.5C13.0703 15.4998 12.9218 15.4471 12.8042 15.3511C12.6867 15.2551 12.6077 15.1219 12.581 14.9749L12.1139 12.3996C11.0443 12.5515 9.95766 12.5512 8.88819 12.3985L8.42115 14.9739C8.39448 15.1208 8.31545 15.254 8.19792 15.35C8.08039 15.446 7.93185 15.4988 7.77833 15.499C7.74004 15.499 7.70182 15.4957 7.6641 15.4893C7.49341 15.46 7.34166 15.366 7.24224 15.228C7.14281 15.09 7.10385 14.9192 7.13392 14.7533L7.60889 12.1342C6.58512 11.8534 5.61344 11.4169 4.72982 10.8411L3.2194 13.3846C3.17648 13.4568 3.11936 13.5201 3.05127 13.5709C2.98319 13.6217 2.90548 13.659 2.82259 13.6805C2.7397 13.7021 2.65324 13.7076 2.56816 13.6968C2.48308 13.6859 2.40104 13.6588 2.32672 13.6171C2.2524 13.5753 2.18727 13.5198 2.13503 13.4536C2.08279 13.3874 2.04447 13.3119 2.02226 13.2313C2.00005 13.1507 1.99439 13.0666 2.00559 12.9839C2.0168 12.9012 2.04465 12.8215 2.08756 12.7492L3.68027 10.0672C3.12477 9.60246 2.61396 9.08946 2.15417 8.53459C2.04525 8.40353 1.99435 8.23576 2.01266 8.0682C2.03097 7.90065 2.117 7.74703 2.25181 7.64113C2.38663 7.53524 2.55919 7.48576 2.73154 7.50356C2.90388 7.52136 3.06189 7.605 3.17081 7.73606C3.68115 8.35345 4.26357 8.91108 4.90634 9.39773C4.91147 9.40129 4.91615 9.40521 4.92114 9.40889C6.5161 10.6153 8.48398 11.2615 10.5047 11.2426C12.5249 11.2615 14.4923 10.6156 16.0871 9.40971C16.0914 9.40657 16.0954 9.40323 16.0998 9.40021C16.7438 8.91296 17.3273 8.35449 17.8385 7.73606C17.9475 7.60514 18.1054 7.52163 18.2777 7.5039C18.45 7.48617 18.6224 7.53566 18.7572 7.6415C18.8919 7.74734 18.9779 7.90087 18.9963 8.06833C19.0147 8.2358 18.9639 8.40351 18.8551 8.53459C18.3944 9.09055 17.8826 9.60447 17.3258 10.07L18.9095 12.7366Z" fill="#7D7D7D"/>
</svg>
