<svg width="41" height="29" viewBox="0 0 41 29" fill="none" xmlns="http://www.w3.org/2000/svg">
<rect x="0.987793" width="39.1769" height="28.9254" rx="6" fill="#DAE6F8"/>
<path d="M25.1931 16.7543C26.2168 16.3532 27.2492 15.4395 27.2492 13.5966C27.2492 10.8552 24.9646 10.1698 23.8223 10.1698C23.8223 8.79907 23.8223 6.05762 19.7101 6.05762C15.598 6.05762 15.598 8.79907 15.598 10.1698C14.4557 10.1698 12.1711 10.8552 12.1711 13.5966C12.1711 15.4395 13.2035 16.3532 14.2272 16.7543" stroke="#0098EE" stroke-width="1.5" stroke-linecap="round" stroke-linejoin="round"/>
<path d="M16.6812 18.043L17.8927 19.2546C18.9634 20.3252 20.6991 20.3252 21.7697 19.2546L22.0121 19.0122" stroke="#0098EE" stroke-width="1.5" stroke-linecap="round" stroke-linejoin="round"/>
<path d="M16.9235 19.7392L16.6812 18.043L18.3773 18.2853L16.9235 19.7392Z" stroke="#0098EE" stroke-width="1.5" stroke-linecap="round" stroke-linejoin="round"/>
<path d="M22.6559 16.2703L21.4443 15.0588C20.3737 13.9882 18.6378 13.9882 17.5673 15.0588L17.325 15.3011" stroke="#0098EE" stroke-width="1.5" stroke-linecap="round" stroke-linejoin="round"/>
<path d="M22.4136 14.5742L22.6559 16.2704L20.9597 16.0281L22.4136 14.5742Z" stroke="#0098EE" stroke-width="1.5" stroke-linecap="round" stroke-linejoin="round"/>
</svg>
