<svg width="21" height="21" viewBox="0 0 21 21" fill="none" xmlns="http://www.w3.org/2000/svg">
<path fill-rule="evenodd" clip-rule="evenodd" d="M13.0023 0.796306C12.2616 0.277116 11.3908 0 10.5 0C9.30547 0 8.15986 0.497812 7.31519 1.38392C6.47053 2.27003 5.996 3.47185 5.996 4.725C5.996 5.65952 6.26016 6.57305 6.75506 7.35007C7.24997 8.1271 7.9534 8.73271 8.77639 9.09034C9.59939 9.44796 10.505 9.54153 11.3787 9.35922C12.2524 9.1769 13.0549 8.72689 13.6848 8.06608C14.3147 7.40528 14.7437 6.56337 14.9175 5.64681C15.0912 4.73024 15.002 3.7802 14.6611 2.91682C14.3203 2.05344 13.743 1.3155 13.0023 0.796306ZM3.98656 14.1129C3.05132 15.0817 2.51728 16.3978 2.5 17.7765C4.69509 19.8516 7.54516 21 10.5 21C13.4548 21 16.3049 19.8516 18.5 17.7765C18.4827 16.3978 17.9486 15.0817 17.0134 14.113C16.0782 13.1442 14.817 12.6007 13.5027 12.6H7.49733C6.18302 12.6007 4.92179 13.1442 3.98656 14.1129Z" fill="#0098EE"/>
</svg>
