<svg width="43" height="46" viewBox="0 0 43 46" fill="none" xmlns="http://www.w3.org/2000/svg">
<path d="M39.0324 27.2859C39.0324 37.0495 30.4389 42.2859 21.1021 42.2859C11.7653 42.2859 4.19629 34.3709 4.19629 24.6073C4.19629 14.8437 11.7653 6.92871 21.1021 6.92871C30.4389 6.92871 39.0324 17.5223 39.0324 27.2859Z" fill="#0098EE"/>
<path d="M38.0363 37.3515C40.2429 34.5745 41.7774 31.2827 42.5102 27.7545C43.243 24.2262 43.1524 20.5653 42.2461 17.0814C41.3398 13.5975 39.6445 10.3931 37.3036 7.73922C34.9627 5.08532 32.0449 3.06001 28.7972 1.83458C25.5495 0.609162 22.0673 0.219677 18.6453 0.699074C15.2232 1.17847 11.9618 2.51265 9.13707 4.58875C6.31231 6.66486 4.00724 9.42183 2.41682 12.6265C0.826409 15.8311 -0.00257028 19.3891 5.98647e-06 22.9996C0.00120967 28.2489 1.77021 33.33 4.99659 37.3515L4.96585 37.3781C5.07343 37.5139 5.19638 37.63 5.30734 37.7626C5.44566 37.9291 5.59382 38.084 5.73767 38.246C6.168 38.7334 6.6097 39.2026 7.07477 39.6442C7.21539 39.7778 7.36124 39.9033 7.5051 40.0327C7.9969 40.4761 8.50161 40.896 9.02662 41.2883C9.09439 41.3385 9.15448 41.3997 9.22272 41.45V41.4296C12.8223 44.0784 17.1163 45.5 21.5178 45.5C25.9193 45.5 30.2134 44.0784 33.8129 41.4296V41.4497C33.8812 41.3994 33.9413 41.3381 34.0091 41.288C34.5334 40.8957 35.0388 40.4757 35.5306 40.0323C35.6744 39.9038 35.8203 39.7774 35.9609 39.6439C36.4258 39.2021 36.8677 38.733 37.298 38.2457C37.4414 38.084 37.5891 37.9287 37.7283 37.7622C37.8388 37.6297 37.9622 37.5136 38.0698 37.3778L38.0363 37.3515ZM21.5165 10.1425C22.8843 10.1425 24.2214 10.5666 25.3588 11.3613C26.4961 12.156 27.3825 13.2855 27.906 14.607C28.4295 15.9285 28.5664 17.3826 28.2996 18.7855C28.0327 20.1884 27.374 21.4771 26.4068 22.4885C25.4396 23.5 24.2073 24.1888 22.8657 24.4678C21.5241 24.7469 20.1335 24.6036 18.8698 24.0563C17.6061 23.5089 16.5259 22.5819 15.766 21.3926C15.0061 20.2033 14.6005 18.805 14.6005 17.3746C14.6005 15.4565 15.3291 13.617 16.6261 12.2607C17.9231 10.9044 19.6822 10.1425 21.5165 10.1425ZM9.23225 37.3515C9.25879 35.2412 10.0788 33.2267 11.5149 31.7439C12.951 30.2611 14.8876 29.4292 16.9058 29.4282H26.1271C28.1453 29.4293 30.0819 30.2612 31.518 31.744C32.954 33.2268 33.7741 35.2412 33.8007 37.3515C30.43 40.5276 26.0537 42.2854 21.5165 42.2854C16.9792 42.2854 12.6029 40.5276 9.23225 37.3515Z" fill="#FDFDFD"/>
</svg>
