<svg width="21" height="20" viewBox="0 0 21 20" fill="none" xmlns="http://www.w3.org/2000/svg">
<path d="M18.1846 10.0635H20.4995" stroke="#7D7D7D" stroke-width="1.5"/>
<path d="M0.5 10.0635H13.2508" stroke="#7D7D7D" stroke-width="1.5"/>
<path d="M8.25488 3.56055H20.5" stroke="#7D7D7D" stroke-width="1.5"/>
<path d="M0.5 3.56055H3.32895" stroke="#7D7D7D" stroke-width="1.5"/>
<path d="M11.7336 16.5684H20.5001" stroke="#7D7D7D" stroke-width="1.5"/>
<path d="M0.5 16.5684H6.79935" stroke="#7D7D7D" stroke-width="1.5"/>
<path d="M5.7923 5.8685C7.15485 5.8685 8.25941 4.77865 8.25941 3.43425C8.25941 2.08985 7.15485 1 5.7923 1C4.42976 1 3.3252 2.08985 3.3252 3.43425C3.3252 4.77865 4.42976 5.8685 5.7923 5.8685Z" stroke="#7D7D7D" stroke-width="1.5"/>
<path d="M15.7178 12.4964C17.0804 12.4964 18.185 11.4066 18.185 10.0622C18.185 8.71778 17.0804 7.62793 15.7178 7.62793C14.3553 7.62793 13.2507 8.71778 13.2507 10.0622C13.2507 11.4066 14.3553 12.4964 15.7178 12.4964Z" stroke="#7D7D7D" stroke-width="1.5"/>
<path d="M9.26667 19.0003C10.6292 19.0003 11.7338 17.9105 11.7338 16.5661C11.7338 15.2217 10.6292 14.1318 9.26667 14.1318C7.90412 14.1318 6.79956 15.2217 6.79956 16.5661C6.79956 17.9105 7.90412 19.0003 9.26667 19.0003Z" stroke="#7D7D7D" stroke-width="1.5"/>
</svg>
