<svg width="19" height="19" viewBox="0 0 19 19" fill="none" xmlns="http://www.w3.org/2000/svg">
<path fill-rule="evenodd" clip-rule="evenodd" d="M9.5 17.1C5.301 17.1 1.9 13.699 1.9 9.5C1.9 7.106 3.021 4.978 4.75 3.591V4.75C4.75 5.2725 5.1775 5.7 5.7 5.7C6.2225 5.7 6.65 5.2725 6.65 4.75V0.95C6.65 0.4275 6.2225 0 5.7 0H1.9C1.3775 0 0.95 0.4275 0.95 0.95C0.95 1.4725 1.3775 1.9 1.9 1.9H3.857C1.5295 3.629 0 6.3745 0 9.5C0 14.744 4.256 19 9.5 19C10.0225 19 10.45 18.5725 10.45 18.05C10.45 17.5275 10.0225 17.1 9.5 17.1ZM9.5 1.9C11.058 1.9 12.4925 2.3655 13.699 3.173L15.0575 1.8145C13.4995 0.6745 11.5805 0 9.5 0C8.9775 0 8.55 0.4275 8.55 0.95C8.55 1.4725 8.9775 1.9 9.5 1.9ZM19 9.5C19 8.4265 18.81 7.4005 18.487 6.441L16.948 7.98C17.043 8.474 17.1 8.9775 17.1 9.5C17.1 11.894 15.979 14.022 14.25 15.409V14.25C14.25 13.7275 13.8225 13.3 13.3 13.3C12.7775 13.3 12.35 13.7275 12.35 14.25V18.05C12.35 18.5725 12.7775 19 13.3 19H17.1C17.6225 19 18.05 18.5725 18.05 18.05C18.05 17.5275 17.6225 17.1 17.1 17.1H15.143C17.4705 15.371 19 12.6255 19 9.5ZM19 2.85C19 2.3275 18.5725 1.9 18.05 1.9C17.784 1.9 17.5465 2.0045 17.3755 2.1755L11.4 8.1605L9.2245 5.9755C9.0535 5.8045 8.816 5.7 8.55 5.7C8.0275 5.7 7.6 6.1275 7.6 6.65C7.6 6.916 7.7045 7.1535 7.8755 7.3245L10.7255 10.1745C10.8965 10.3455 11.134 10.45 11.4 10.45C11.666 10.45 11.9035 10.3455 12.0745 10.1745L18.7245 3.5245C18.8955 3.3535 19 3.116 19 2.85Z" fill="#7D7D7D"/>
</svg>
