<svg width="24" height="23" viewBox="0 0 24 23" fill="none" xmlns="http://www.w3.org/2000/svg">
<rect x="1.5" y="1.5498" width="20.3341" height="19.7845" fill="#0098EE"/>
<path d="M19.7 1H4.3C3.55739 1 2.8452 1.295 2.3201 1.8201C1.795 2.3452 1.5 3.05739 1.5 3.8V19.2C1.5 19.9426 1.795 20.6548 2.3201 21.1799C2.8452 21.705 3.55739 22 4.3 22H19.7C20.4426 22 21.1548 21.705 21.6799 21.1799C22.205 20.6548 22.5 19.9426 22.5 19.2V3.8C22.5 3.05739 22.205 2.3452 21.6799 1.8201C21.1548 1.295 20.4426 1 19.7 1Z" stroke="#E3E3E3" stroke-width="1.5" stroke-miterlimit="10"/>
<path d="M9.66667 22V1M1.5 9.16667H22.5" stroke="#E3E3E3" stroke-width="1.5" stroke-miterlimit="10" stroke-linecap="round"/>
</svg>
